<mxfile host="app.diagrams.net" modified="2021-02-01T07:39:09.634Z" agent="5.0 (Macintosh; Intel Mac OS X 10_15_6) AppleWebKit/605.1.15 (KHTML, like Gecko) Version/14.0.2 Safari/605.1.15" etag="b-FgIdxCVezk0EhYfcli" version="14.2.9" type="github">
  <diagram id="8wp-kkvbxen9tDqzM8C1" name="Page-1">
    <mxGraphModel dx="830" dy="800" grid="1" gridSize="10" guides="1" tooltips="1" connect="1" arrows="1" fold="1" page="1" pageScale="1" pageWidth="827" pageHeight="1169" math="0" shadow="0">
      <root>
        <mxCell id="0" />
        <mxCell id="1" parent="0" />
        <mxCell id="-4VRe7rHG7LYMEuQ_F8g-7" style="edgeStyle=orthogonalEdgeStyle;rounded=0;orthogonalLoop=1;jettySize=auto;html=1;exitX=0.5;exitY=1;exitDx=0;exitDy=0;entryX=0.5;entryY=0;entryDx=0;entryDy=0;" edge="1" parent="1" source="-4VRe7rHG7LYMEuQ_F8g-1" target="-4VRe7rHG7LYMEuQ_F8g-2">
          <mxGeometry relative="1" as="geometry" />
        </mxCell>
        <mxCell id="-4VRe7rHG7LYMEuQ_F8g-1" value="问题/故障提出&lt;br&gt;（任何团队成员）" style="ellipse;whiteSpace=wrap;html=1;" vertex="1" parent="1">
          <mxGeometry x="120" y="130" width="120" height="80" as="geometry" />
        </mxCell>
        <mxCell id="-4VRe7rHG7LYMEuQ_F8g-8" style="edgeStyle=orthogonalEdgeStyle;rounded=0;orthogonalLoop=1;jettySize=auto;html=1;exitX=0.5;exitY=1;exitDx=0;exitDy=0;entryX=0.5;entryY=0;entryDx=0;entryDy=0;" edge="1" parent="1" source="-4VRe7rHG7LYMEuQ_F8g-2" target="-4VRe7rHG7LYMEuQ_F8g-3">
          <mxGeometry relative="1" as="geometry" />
        </mxCell>
        <mxCell id="-4VRe7rHG7LYMEuQ_F8g-2" value="填写问题/故障收集表，并点对点同汇总人沟通确认" style="rounded=0;whiteSpace=wrap;html=1;" vertex="1" parent="1">
          <mxGeometry x="120" y="250" width="120" height="60" as="geometry" />
        </mxCell>
        <mxCell id="-4VRe7rHG7LYMEuQ_F8g-9" style="edgeStyle=orthogonalEdgeStyle;rounded=0;orthogonalLoop=1;jettySize=auto;html=1;exitX=0.5;exitY=1;exitDx=0;exitDy=0;entryX=0.5;entryY=0;entryDx=0;entryDy=0;" edge="1" parent="1" source="-4VRe7rHG7LYMEuQ_F8g-3" target="-4VRe7rHG7LYMEuQ_F8g-4">
          <mxGeometry relative="1" as="geometry" />
        </mxCell>
        <mxCell id="-4VRe7rHG7LYMEuQ_F8g-3" value="汇总人创建jira，分配到下一级处理人，并进行点对点沟通" style="rounded=0;whiteSpace=wrap;html=1;" vertex="1" parent="1">
          <mxGeometry x="120" y="360" width="120" height="60" as="geometry" />
        </mxCell>
        <mxCell id="-4VRe7rHG7LYMEuQ_F8g-6" style="edgeStyle=orthogonalEdgeStyle;rounded=0;orthogonalLoop=1;jettySize=auto;html=1;exitX=1;exitY=0.5;exitDx=0;exitDy=0;entryX=0;entryY=0.5;entryDx=0;entryDy=0;" edge="1" parent="1" source="-4VRe7rHG7LYMEuQ_F8g-4" target="-4VRe7rHG7LYMEuQ_F8g-5">
          <mxGeometry relative="1" as="geometry" />
        </mxCell>
        <mxCell id="-4VRe7rHG7LYMEuQ_F8g-13" style="edgeStyle=orthogonalEdgeStyle;rounded=0;orthogonalLoop=1;jettySize=auto;html=1;exitX=0.5;exitY=1;exitDx=0;exitDy=0;entryX=0.5;entryY=0;entryDx=0;entryDy=0;" edge="1" parent="1" source="-4VRe7rHG7LYMEuQ_F8g-4" target="-4VRe7rHG7LYMEuQ_F8g-12">
          <mxGeometry relative="1" as="geometry" />
        </mxCell>
        <mxCell id="-4VRe7rHG7LYMEuQ_F8g-4" value="是否为自己负责的问题" style="rhombus;whiteSpace=wrap;html=1;" vertex="1" parent="1">
          <mxGeometry x="120" y="470" width="120" height="80" as="geometry" />
        </mxCell>
        <mxCell id="-4VRe7rHG7LYMEuQ_F8g-14" style="edgeStyle=orthogonalEdgeStyle;rounded=0;orthogonalLoop=1;jettySize=auto;html=1;entryX=1;entryY=0.5;entryDx=0;entryDy=0;" edge="1" parent="1" source="-4VRe7rHG7LYMEuQ_F8g-5" target="-4VRe7rHG7LYMEuQ_F8g-12">
          <mxGeometry relative="1" as="geometry">
            <mxPoint x="380" y="650" as="targetPoint" />
            <Array as="points">
              <mxPoint x="380" y="640" />
            </Array>
          </mxGeometry>
        </mxCell>
        <mxCell id="-4VRe7rHG7LYMEuQ_F8g-5" value="分配到其他处理人，附上相关分析描述，并进行点对点沟通" style="rounded=0;whiteSpace=wrap;html=1;" vertex="1" parent="1">
          <mxGeometry x="320" y="480" width="120" height="60" as="geometry" />
        </mxCell>
        <mxCell id="-4VRe7rHG7LYMEuQ_F8g-10" value="否" style="text;html=1;strokeColor=none;fillColor=none;align=center;verticalAlign=middle;whiteSpace=wrap;rounded=0;" vertex="1" parent="1">
          <mxGeometry x="260" y="490" width="40" height="20" as="geometry" />
        </mxCell>
        <mxCell id="-4VRe7rHG7LYMEuQ_F8g-17" style="edgeStyle=orthogonalEdgeStyle;rounded=0;orthogonalLoop=1;jettySize=auto;html=1;exitX=0.5;exitY=1;exitDx=0;exitDy=0;entryX=0.5;entryY=0;entryDx=0;entryDy=0;" edge="1" parent="1" source="-4VRe7rHG7LYMEuQ_F8g-12" target="-4VRe7rHG7LYMEuQ_F8g-15">
          <mxGeometry relative="1" as="geometry" />
        </mxCell>
        <mxCell id="-4VRe7rHG7LYMEuQ_F8g-12" value="主导（包含协调相关团队配合）处理问题" style="rounded=0;whiteSpace=wrap;html=1;" vertex="1" parent="1">
          <mxGeometry x="120" y="610" width="120" height="60" as="geometry" />
        </mxCell>
        <mxCell id="-4VRe7rHG7LYMEuQ_F8g-19" style="edgeStyle=orthogonalEdgeStyle;rounded=0;orthogonalLoop=1;jettySize=auto;html=1;exitX=0.5;exitY=1;exitDx=0;exitDy=0;entryX=0.5;entryY=0;entryDx=0;entryDy=0;" edge="1" parent="1" source="-4VRe7rHG7LYMEuQ_F8g-15" target="-4VRe7rHG7LYMEuQ_F8g-18">
          <mxGeometry relative="1" as="geometry" />
        </mxCell>
        <mxCell id="-4VRe7rHG7LYMEuQ_F8g-15" value="处理完成后，流程结束并走回到汇总人，提供问题处理报告" style="rounded=0;whiteSpace=wrap;html=1;" vertex="1" parent="1">
          <mxGeometry x="120" y="720" width="120" height="60" as="geometry" />
        </mxCell>
        <mxCell id="-4VRe7rHG7LYMEuQ_F8g-16" value="是" style="text;html=1;strokeColor=none;fillColor=none;align=center;verticalAlign=middle;whiteSpace=wrap;rounded=0;" vertex="1" parent="1">
          <mxGeometry x="180" y="560" width="40" height="20" as="geometry" />
        </mxCell>
        <mxCell id="-4VRe7rHG7LYMEuQ_F8g-18" value="汇总人反馈处理结果给提出人，并更新收集表" style="ellipse;whiteSpace=wrap;html=1;" vertex="1" parent="1">
          <mxGeometry x="120" y="830" width="120" height="80" as="geometry" />
        </mxCell>
      </root>
    </mxGraphModel>
  </diagram>
</mxfile>
